<?xml version="1.0" encoding="UTF-8" standalone="no"?>
<!-- Created with Inkscape (http://www.inkscape.org/) -->

<svg
   width="300pt"
   height="200pt"
   viewBox="0 0 105.83334 70.555555"
   version="1.1"
   id="svg5"
   inkscape:version="1.1.1 (3bf5ae0d25, 2021-09-20)"
   sodipodi:docname="example.svg"
   xmlns:inkscape="http://www.inkscape.org/namespaces/inkscape"
   xmlns:sodipodi="http://sodipodi.sourceforge.net/DTD/sodipodi-0.dtd"
   xmlns:xlink="http://www.w3.org/1999/xlink"
   xmlns="http://www.w3.org/2000/svg"
   xmlns:svg="http://www.w3.org/2000/svg">
  <sodipodi:namedview
     id="namedview7"
     pagecolor="#ffffff"
     bordercolor="#666666"
     borderopacity="1.0"
     inkscape:pageshadow="2"
     inkscape:pageopacity="0.0"
     inkscape:pagecheckerboard="0"
     inkscape:document-units="pt"
     showgrid="false"
     units="pt"
     width="300pt"
     inkscape:snap-bbox="true"
     inkscape:snap-page="true"
     inkscape:zoom="0.25000001"
     inkscape:cx="341.99999"
     inkscape:cy="311.99999"
     inkscape:window-width="1600"
     inkscape:window-height="900"
     inkscape:window-x="0"
     inkscape:window-y="0"
     inkscape:window-maximized="1"
     inkscape:current-layer="layer1"
     inkscape:snap-text-baseline="true"
     inkscape:snap-center="true"
     inkscape:snap-object-midpoints="true"
     inkscape:snap-global="false" />
  <defs
     id="defs2">
    <inkscape:path-effect
       effect="spiro"
       id="path-effect16049"
       is_visible="true"
       lpeversion="1" />
    <inkscape:path-effect
       effect="spiro"
       id="path-effect28497"
       is_visible="true"
       lpeversion="1" />
    <marker
       markerWidth="6.051444"
       markerHeight="9.6710055"
       refX="5"
       refY="4.8355028"
       orient="auto"
       id="marker30048">
      <path
         id="path30046"
         style="fill:none;stroke:#000000;stroke-width:1;stroke-linecap:round;stroke-linejoin:round;stroke-miterlimit:4;stroke-dasharray:none"
         d="M 0.66666517,0.66666517 C 1.5904951,2.0706084 3.5098524,4.0005863 5.384876,4.8355217 3.5098524,5.6704193 1.5904951,7.6003971 0.66666517,9.0043404"
         sodipodi:nodetypes="ccc"
         inkscape:transform-center-x="0.24578278" />
    </marker>
  </defs>
  <g
     inkscape:label="Layer 1"
     inkscape:groupmode="layer"
     id="layer1">
    <rect
       style="fill:none;stroke:#000000;stroke-width:0.352777;stroke-miterlimit:4;stroke-dasharray:none"
       id="rect846"
       width="98.43708"
       height="62.813816"
       x="3.7350221"
       y="3.7813499" />
    <path
       style="fill:none;stroke:#000000;stroke-width:0.352777;stroke-linecap:round;stroke-linejoin:round;stroke-miterlimit:4;stroke-dasharray:none"
       d="M 433.5337,25.253414 V 3.7237562"
       id="path2570" />
    <path
       style="fill:none;stroke:#000000;stroke-width:0.352777;stroke-linecap:round;stroke-linejoin:round;stroke-miterlimit:4;stroke-dasharray:none"
       d="m 433.5337,3.7237562 c 0.22091,0.4961 0.73155,1.003932 1.10301,1.248361"
       id="path3035"
       sodipodi:nodetypes="cc" />
    <use
       x="0"
       y="0"
       xlink:href="#path3035"
       id="use3412"
       transform="matrix(-1,0,0,1,867.06741,-7.6663991e-7)"
       width="100%"
       height="100%" />
    <text
       xml:space="preserve"
       style="font-size:1.76389px;white-space:pre;inline-size:25.4811;fill:none;stroke:#000000;stroke-width:0.352777;stroke-linecap:round;stroke-linejoin:round;stroke-miterlimit:4;stroke-dasharray:none"
       x="115.14606"
       y="-4.0886478"
       id="text9116"
       transform="translate(315.96288,33.491433)"><tspan
         x="115.14606"
         y="-4.0886478"
         id="tspan941"><tspan
           style="fill:#000000;stroke:none;stroke-width:0.352778"
           id="tspan939">Freccia di esempio:
</tspan></tspan><tspan
         x="115.14606"
         y="-1.8837854"
         id="tspan945"><tspan
           style="fill:#000000;stroke:none;stroke-width:0.352778"
           id="tspan943">l'archetto a destra è </tspan></tspan><tspan
         x="115.14606"
         y="0.32107715"
         id="tspan949"><tspan
           style="fill:#000000;stroke:none;stroke-width:0.352778"
           id="tspan947">modificabile, mentre quello </tspan></tspan><tspan
         x="115.14606"
         y="2.5259397"
         id="tspan953"><tspan
           style="fill:#000000;stroke:none;stroke-width:0.352778"
           id="tspan951">a sinistra è un clone </tspan></tspan><tspan
         x="115.14606"
         y="4.7308023"
         id="tspan957"><tspan
           style="fill:#000000;stroke:none;stroke-width:0.352778"
           id="tspan955">simmetrico</tspan></tspan></text>
    <path
       style="fill:none;stroke:#000000;stroke-width:0.352777;stroke-linecap:round;stroke-linejoin:round;stroke-miterlimit:4;stroke-dasharray:none"
       d="M 467.38404,25.253414 V 3.7237562"
       id="path24500" />
    <path
       id="use24504"
       style="fill:none;stroke:#000000;stroke-width:0.352777;stroke-linecap:round;stroke-linejoin:round;stroke-miterlimit:4;stroke-dasharray:none"
       d="m 466.28104,4.9721164 c 0.37146,-0.244429 0.8821,-0.752261 1.10301,-1.2483606 0.2209,0.4961004 0.73154,1.0039324 1.103,1.2483614"
       sodipodi:nodetypes="ccc"
       inkscape:transform-center-x="5.0000001e-06"
       inkscape:transform-center-y="0.62418071" />
    <text
       xml:space="preserve"
       style="font-size:1.76389px;white-space:pre;inline-size:25.4811;fill:none;stroke:#000000;stroke-width:0.352777;stroke-linecap:round;stroke-linejoin:round;stroke-miterlimit:4;stroke-dasharray:none"
       x="115.14606"
       y="-4.0886478"
       id="text24510"
       transform="translate(349.81322,33.491433)"><tspan
         x="115.14606"
         y="-4.0886478"
         id="tspan961"><tspan
           style="fill:#000000;stroke:none;stroke-width:0.352778"
           id="tspan959">In questa freccia la testa </tspan></tspan><tspan
         x="115.14606"
         y="-1.8837854"
         id="tspan965"><tspan
           style="fill:#000000;stroke:none;stroke-width:0.352778"
           id="tspan963">invece è un singolo path ed </tspan></tspan><tspan
         x="115.14606"
         y="0.32107715"
         id="tspan969"><tspan
           style="fill:#000000;stroke:none;stroke-width:0.352778"
           id="tspan967">è anche un &quot;marker&quot; che la </tspan></tspan><tspan
         x="115.14606"
         y="2.5259397"
         id="tspan973"><tspan
           style="fill:#000000;stroke:none;stroke-width:0.352778"
           id="tspan971">rende utilizzabile come testa </tspan></tspan><tspan
         x="115.14606"
         y="4.7308023"
         id="tspan977"><tspan
           style="fill:#000000;stroke:none;stroke-width:0.352778"
           id="tspan975">delle linee come </tspan></tspan><tspan
         x="115.14606"
         y="6.9356649"
         id="tspan981"><tspan
           style="fill:#000000;stroke:none;stroke-width:0.352778"
           id="tspan979">nell'esempio qui a destra</tspan></tspan></text>
    <path
       style="fill:none;stroke:#000000;stroke-width:0.352777;stroke-linecap:round;stroke-linejoin:round;stroke-miterlimit:4;stroke-dasharray:none;marker-end:url(#marker30048)"
       d="m 525.00679,57.489308 c -1.82531,-1.044665 -3.35502,-2.599566 -4.36973,-4.441691 -0.30224,-0.548693 -0.56025,-1.123723 -0.73706,-1.724681 -0.27443,-0.93274 -0.34476,-1.955739 -0.004,-2.86617 0.17061,-0.455216 0.44356,-0.874995 0.80825,-1.196446 0.36469,-0.321451 0.82249,-0.541608 1.30506,-0.600351 0.5443,-0.06626 1.0986,0.07256 1.59282,0.310039 0.49423,0.237481 0.93589,0.570228 1.36472,0.911927 0.85476,0.681082 1.68742,1.415897 2.68028,1.872725 0.49644,0.228415 1.03088,0.383965 1.57665,0.411503 0.54577,0.02754 1.10359,-0.077 1.58217,-0.340787 0.56272,-0.310166 0.99316,-0.827311 1.27778,-1.403374 0.28461,-0.576063 0.43231,-1.210699 0.52293,-1.846815 0.22451,-1.575954 0.11027,-3.186927 -0.19491,-4.749266 -0.42422,-2.171753 -1.27049,-4.349946 -2.90266,-5.844096 -1.10744,-1.013795 -2.54422,-1.66193 -4.03715,-1.821178"
       id="path28495"
       inkscape:path-effect="#path-effect28497"
       inkscape:original-d="m 525.00679,57.489308 c -1.25585,-1.648212 -3.01491,-2.865239 -4.36973,-4.441691 -0.36361,-0.4231 -0.67445,-1.158763 -0.73706,-1.724681 -0.13819,-1.249048 0.60879,-4.457602 2.10977,-4.662967 1.14548,-0.156726 2.03484,0.674071 2.95754,1.221966 1.4384,0.854106 4.12132,2.144556 5.8391,1.943441 1.09157,-0.127796 1.69747,-2.543371 1.80071,-3.250189 0.29478,-2.018161 0.41416,-2.947452 -0.19491,-4.749266 -0.69557,-2.05771 -2.02569,-3.867044 -2.90266,-5.844096 -0.34697,-0.782214 -4.42355,-1.615307 -4.03715,-1.821178"
       sodipodi:nodetypes="cssssssssc" />
    <path
       id="path28891"
       style="fill:none;stroke:#000000;stroke-width:0.352777;stroke-linecap:round;stroke-linejoin:round;stroke-miterlimit:4;stroke-dasharray:none"
       d="m 504.82598,3.1283376 c 0.24443,0.37146 0.75226,0.8821 1.24836,1.10301 -0.4961,0.2209 -1.00393,0.73154 -1.24836,1.103"
       sodipodi:nodetypes="ccc"
       inkscape:transform-center-x="-1.2856275e-05" />
    <use
       x="0"
       y="0"
       xlink:href="#path28891"
       inkscape:transform-center-x="-1.2856275e-05"
       id="use29456"
       width="100%"
       height="100%" />
    <use
       x="0"
       y="0"
       xlink:href="#path28891"
       inkscape:transform-center-x="-1.2856275e-05"
       id="use29902"
       width="100%"
       height="100%" />
    <path
       id="path30035"
       style="fill:none;stroke:#000000;stroke-width:0.352777;stroke-linecap:round;stroke-linejoin:round;stroke-miterlimit:4;stroke-dasharray:none"
       d="m 504.82598,10.626015 c 0.24443,0.37146 0.75226,0.8821 1.24836,1.10301 -0.4961,0.2209 -1.00393,0.73154 -1.24836,1.103"
       sodipodi:nodetypes="ccc"
       inkscape:transform-center-x="0.24578278" />
    <text
       xml:space="preserve"
       style="font-size:1.76389px;white-space:pre;inline-size:25.4811;fill:none;stroke:#000000;stroke-width:0.352777;stroke-linecap:round;stroke-linejoin:round;stroke-miterlimit:4;stroke-dasharray:none"
       x="115.14606"
       y="-4.0886478"
       id="text30466"
       transform="translate(395.85072,7.5622648)"><tspan
         x="115.14606"
         y="-4.0886478"
         id="tspan985"><tspan
           style="fill:#000000;stroke:none;stroke-width:0.352778"
           id="tspan983">La freccia sopra è </tspan></tspan><tspan
         x="115.14606"
         y="-1.8837854"
         id="tspan989"><tspan
           style="fill:#000000;stroke:none;stroke-width:0.352778"
           id="tspan987">semplicemente una copia </tspan></tspan><tspan
         x="115.14606"
         y="0.32107715"
         id="tspan993"><tspan
           style="fill:#000000;stroke:none;stroke-width:0.352778"
           id="tspan991">delle precedenti, mentre </tspan></tspan><tspan
         x="115.14606"
         y="2.5259397"
         id="tspan1001"><tspan
           style="fill:#000000;stroke:none;stroke-width:0.352778"
           id="tspan995">quella sotto è un </tspan><tspan
           style="font-style:italic;-inkscape-font-specification:'sans-serif Italic'"
           id="tspan997">path</tspan><tspan
           style="fill:#000000;stroke:none;stroke-width:0.352778"
           id="tspan999"> </tspan></tspan><tspan
         x="115.14606"
         y="4.7308023"
         id="tspan1005"><tspan
           style="fill:#000000;stroke:none;stroke-width:0.352778"
           id="tspan1003">semplice.</tspan></tspan></text>
    <path
       style="fill:none;stroke:#000000;stroke-width:0.352777;marker-end:url(#marker30048)"
       d="m 18.325925,56.796827 c -1.666929,-3.039444 -2.970363,-6.27803 -3.873694,-9.624799 -1.049048,-3.886637 -1.557774,-7.947065 -1.175884,-11.954634 0.38189,-4.007569 1.680221,-7.964212 4.01309,-11.245091 1.149894,-1.617178 2.575267,-3.085626 4.344475,-3.984193 1.613935,-0.819705 3.493466,-1.131458 5.273918,-0.804821 1.780453,0.326637 3.446688,1.303235 4.545589,2.741678 1.081943,1.416245 1.585169,3.216285 1.646461,4.997463 0.06129,1.781177 -0.2952,3.55334 -0.794598,5.264173 -0.998797,3.421667 -2.588016,6.749408 -2.666937,10.312997 -0.07694,3.473913 1.359996,6.920632 3.744887,9.447742 0.830257,0.879768 1.779024,1.660442 2.859056,2.205282 1.080032,0.544839 2.297622,0.846647 3.503957,0.756787 1.425458,-0.106183 2.784349,-0.760894 3.839581,-1.725099 1.055233,-0.964205 1.816593,-2.224617 2.296079,-3.571206 0.958971,-2.693176 0.806665,-5.643544 0.516255,-8.487571 -0.29041,-2.844027 -0.706093,-5.724764 -0.236703,-8.544781 0.234695,-1.410009 0.695585,-2.793924 1.460593,-4.001388 0.765008,-1.207464 1.844798,-2.232987 3.144896,-2.827085 1.51743,-0.693411 3.304023,-0.765569 4.879421,-0.216445 1.575397,0.549123 2.925032,1.709393 3.7228,3.174651 1.032142,1.895732 1.122387,4.148777 1.104003,6.307198 -0.01704,2.000988 -0.106527,4.009675 0.124003,5.997412 0.230531,1.987738 0.802883,3.980052 1.986502,5.593524 1.179907,1.608411 2.915637,2.758081 4.788834,3.443867 1.873197,0.685785 3.883629,0.930389 5.878217,0.958403 2.151655,0.03022 4.319945,-0.189246 6.376016,-0.82415 4.40251,-1.359472 8.166399,-4.70942 9.945808,-8.959592 1.070618,-2.557204 1.434014,-5.373332 1.328941,-8.143616 -0.115804,-3.053234 -0.812046,-6.133586 -2.400409,-8.743711 -1.588363,-2.610125 -4.131779,-4.711664 -7.110696,-5.391151 -2.182771,-0.497887 -4.536377,-0.209057 -6.533993,0.801838 -1.997617,1.010895 -3.624257,2.736271 -4.515818,4.789926 -0.891562,2.053655 -1.041356,4.420181 -0.415853,6.569861 0.625503,2.149681 2.021609,4.066388 3.87582,5.321093"
       id="path16047"
       inkscape:path-effect="#path-effect16049"
       inkscape:original-d="m 18.325925,56.796827 c -0.822294,-3.376021 -2.918949,-6.300839 -3.873694,-9.624799 -1.808869,-6.297613 -0.649979,-17.51192 2.837206,-23.199725 0.979879,-1.598241 2.881383,-2.968043 4.344475,-3.984193 2.93343,-2.037334 8.811991,-2.822994 9.819507,1.936857 1.354628,6.399718 -3.053441,13.038537 -1.815074,20.574633 0.555297,3.379266 1.472245,6.757561 3.744887,9.447742 1.438125,1.702342 3.868624,3.57292 6.363013,2.962069 16.221457,-3.972484 0.149635,-19.714548 11.020701,-29.15713 2.54853,-2.213648 7.415067,0.500535 8.602221,2.958206 1.345155,2.784768 0.777618,2.857489 1.104003,6.307198 0.298408,3.154037 0.879848,8.653886 2.110505,11.590936 1.940608,4.631392 6.379914,4.671614 10.667051,4.40227 2.138801,-0.134374 4.351374,-0.121756 6.376016,-0.82415 4.203219,-1.458191 8.281647,-4.683734 9.945808,-8.959592 0.997579,-2.563159 1.252273,-5.39424 1.328941,-8.143616 0.117364,-4.20878 -2.701481,-16.090113 -9.511105,-14.134862 -6.540447,1.877961 -9.935563,12.150577 -7.589844,17.482718"
       sodipodi:nodetypes="cssssssssssssssssc" />
    <circle
       style="fill:#000000;stroke:none;stroke-width:1.33333"
       id="path16153"
       cx="75.608727"
       cy="37.328125"
       r="0.5291667" />
  </g>
</svg>
